<?xml version="1.0" encoding="UTF-8" standalone="no"?>
<!DOCTYPE svg PUBLIC "-//W3C//DTD SVG 1.1//EN"
 "http://www.w3.org/Graphics/SVG/1.1/DTD/svg11.dtd">
<!-- Generated by graphviz version 12.2.0 (20241103.1931)
 -->
<!-- Pages: 1 -->
<svg width="212pt" height="645pt"
 viewBox="0.00 0.00 211.50 645.00" xmlns="http://www.w3.org/2000/svg" xmlns:xlink="http://www.w3.org/1999/xlink">
<g id="graph0" class="graph" transform="scale(1 1) rotate(0) translate(4 641)">
<polygon fill="white" stroke="none" points="-4,4 -4,-641 207.5,-641 207.5,4 -4,4"/>
<!-- Input -->
<g id="node1" class="node">
<title>Input</title>
<polygon fill="lightblue" stroke="black" points="185.5,-637 18,-637 18,-596 185.5,-596 185.5,-637"/>
<text text-anchor="middle" x="101.75" y="-619.7" font-family="Times,serif" font-size="14.00">Input Layer</text>
<text text-anchor="middle" x="101.75" y="-603.2" font-family="Times,serif" font-size="14.00">[Batch Size, Seq Length, 3]</text>
</g>
<!-- LSTM1 -->
<g id="node2" class="node">
<title>LSTM1</title>
<polygon fill="lightyellow" stroke="black" points="203.5,-560 0,-560 0,-519 203.5,-519 203.5,-560"/>
<text text-anchor="middle" x="101.75" y="-542.7" font-family="Times,serif" font-size="14.00">LSTM Layer 1</text>
<text text-anchor="middle" x="101.75" y="-526.2" font-family="Times,serif" font-size="14.00">[Hidden Units: 128, Bidirectional]</text>
</g>
<!-- Input&#45;&gt;LSTM1 -->
<g id="edge1" class="edge">
<title>Input&#45;&gt;LSTM1</title>
<path fill="none" stroke="black" d="M101.75,-595.79C101.75,-588.45 101.75,-579.91 101.75,-571.78"/>
<polygon fill="black" stroke="black" points="105.25,-571.85 101.75,-561.85 98.25,-571.85 105.25,-571.85"/>
</g>
<!-- Dropout1 -->
<g id="node3" class="node">
<title>Dropout1</title>
<polygon fill="none" stroke="black" stroke-dasharray="1,5" points="151.38,-483 52.12,-483 52.12,-447 151.38,-447 151.38,-483"/>
<text text-anchor="middle" x="101.75" y="-459.95" font-family="Times,serif" font-size="14.00">Dropout (50%)</text>
</g>
<!-- LSTM1&#45;&gt;Dropout1 -->
<g id="edge2" class="edge">
<title>LSTM1&#45;&gt;Dropout1</title>
<path fill="none" stroke="black" d="M101.75,-518.69C101.75,-511.25 101.75,-502.64 101.75,-494.57"/>
<polygon fill="black" stroke="black" points="105.25,-494.83 101.75,-484.83 98.25,-494.83 105.25,-494.83"/>
</g>
<!-- Activation1 -->
<g id="node4" class="node">
<title>Activation1</title>
<polygon fill="lightpink" stroke="black" points="156.25,-411 47.25,-411 47.25,-375 156.25,-375 156.25,-411"/>
<text text-anchor="middle" x="101.75" y="-387.95" font-family="Times,serif" font-size="14.00">ReLU Activation</text>
</g>
<!-- Dropout1&#45;&gt;Activation1 -->
<g id="edge3" class="edge">
<title>Dropout1&#45;&gt;Activation1</title>
<path fill="none" stroke="black" d="M101.75,-446.7C101.75,-439.41 101.75,-430.73 101.75,-422.54"/>
<polygon fill="black" stroke="black" points="105.25,-422.62 101.75,-412.62 98.25,-422.62 105.25,-422.62"/>
</g>
<!-- LSTM2 -->
<g id="node5" class="node">
<title>LSTM2</title>
<polygon fill="lightyellow" stroke="black" points="203.5,-339 0,-339 0,-298 203.5,-298 203.5,-339"/>
<text text-anchor="middle" x="101.75" y="-321.7" font-family="Times,serif" font-size="14.00">LSTM Layer 2</text>
<text text-anchor="middle" x="101.75" y="-305.2" font-family="Times,serif" font-size="14.00">[Hidden Units: 128, Bidirectional]</text>
</g>
<!-- Activation1&#45;&gt;LSTM2 -->
<g id="edge4" class="edge">
<title>Activation1&#45;&gt;LSTM2</title>
<path fill="none" stroke="black" d="M101.75,-374.82C101.75,-367.59 101.75,-358.95 101.75,-350.66"/>
<polygon fill="black" stroke="black" points="105.25,-350.89 101.75,-340.89 98.25,-350.89 105.25,-350.89"/>
</g>
<!-- Dropout2 -->
<g id="node6" class="node">
<title>Dropout2</title>
<polygon fill="none" stroke="black" stroke-dasharray="1,5" points="151.38,-262 52.12,-262 52.12,-226 151.38,-226 151.38,-262"/>
<text text-anchor="middle" x="101.75" y="-238.95" font-family="Times,serif" font-size="14.00">Dropout (30%)</text>
</g>
<!-- LSTM2&#45;&gt;Dropout2 -->
<g id="edge5" class="edge">
<title>LSTM2&#45;&gt;Dropout2</title>
<path fill="none" stroke="black" d="M101.75,-297.69C101.75,-290.25 101.75,-281.64 101.75,-273.57"/>
<polygon fill="black" stroke="black" points="105.25,-273.83 101.75,-263.83 98.25,-273.83 105.25,-273.83"/>
</g>
<!-- Activation2 -->
<g id="node7" class="node">
<title>Activation2</title>
<polygon fill="lightpink" stroke="black" points="156.25,-190 47.25,-190 47.25,-154 156.25,-154 156.25,-190"/>
<text text-anchor="middle" x="101.75" y="-166.95" font-family="Times,serif" font-size="14.00">ReLU Activation</text>
</g>
<!-- Dropout2&#45;&gt;Activation2 -->
<g id="edge6" class="edge">
<title>Dropout2&#45;&gt;Activation2</title>
<path fill="none" stroke="black" d="M101.75,-225.7C101.75,-218.41 101.75,-209.73 101.75,-201.54"/>
<polygon fill="black" stroke="black" points="105.25,-201.62 101.75,-191.62 98.25,-201.62 105.25,-201.62"/>
</g>
<!-- FC -->
<g id="node8" class="node">
<title>FC</title>
<polygon fill="orange" stroke="black" points="172.38,-118 31.12,-118 31.12,-77 172.38,-77 172.38,-118"/>
<text text-anchor="middle" x="101.75" y="-100.7" font-family="Times,serif" font-size="14.00">Fully Connected Layer</text>
<text text-anchor="middle" x="101.75" y="-84.2" font-family="Times,serif" font-size="14.00">[256 → 1]</text>
</g>
<!-- Activation2&#45;&gt;FC -->
<g id="edge7" class="edge">
<title>Activation2&#45;&gt;FC</title>
<path fill="none" stroke="black" d="M101.75,-153.82C101.75,-146.59 101.75,-137.95 101.75,-129.66"/>
<polygon fill="black" stroke="black" points="105.25,-129.89 101.75,-119.89 98.25,-129.89 105.25,-129.89"/>
</g>
<!-- Output -->
<g id="node9" class="node">
<title>Output</title>
<polygon fill="red" stroke="black" points="171.62,-41 31.88,-41 31.88,0 171.62,0 171.62,-41"/>
<text text-anchor="middle" x="101.75" y="-23.7" font-family="Times,serif" font-size="14.00">Output Layer</text>
<text text-anchor="middle" x="101.75" y="-7.2" font-family="Times,serif" font-size="14.00">(Binary Classification)</text>
</g>
<!-- FC&#45;&gt;Output -->
<g id="edge8" class="edge">
<title>FC&#45;&gt;Output</title>
<path fill="none" stroke="black" d="M101.75,-76.79C101.75,-69.45 101.75,-60.91 101.75,-52.78"/>
<polygon fill="black" stroke="black" points="105.25,-52.85 101.75,-42.85 98.25,-52.85 105.25,-52.85"/>
</g>
</g>
</svg>
